<svg width="200" height="87" viewBox="0 0 200 87" fill="none" xmlns="http://www.w3.org/2000/svg">
<path d="M1.23077 52.3077L0 63.3846L1.23077 74.4615C1.23077 75.0769 1.84615 75.0769 1.84615 75.0769C2.46154 75.0769 2.46154 74.4615 2.46154 74.4615L4.30769 63.3846L2.46154 52.3077C2.46154 51.6923 1.84615 51.6923 1.84615 51.6923C1.84615 51.6923 1.23077 51.6923 1.23077 52.3077ZM8.61538 45.5385L6.76923 63.3846L8.61538 81.2308C8.61538 81.8462 9.23077 81.8462 9.23077 81.8462C9.84615 81.8462 9.84615 81.2308 9.84615 81.2308L12.3077 63.3846L9.84615 45.5385C9.84615 44.9231 9.23077 44.9231 9.23077 44.9231L8.61538 45.5385ZM32 43.0769L30.7692 63.3846L32 84.9231C32 85.5385 32.6154 86.1538 33.2308 86.1538C33.8462 86.1538 34.4615 85.5385 34.4615 84.9231L36.9231 63.3846L35.0769 43.0769C35.0769 42.4615 34.4615 41.8462 33.8462 41.8462C32.6154 41.8462 32 42.4615 32 43.0769ZM16.6154 41.8462L14.7692 63.3846L16.6154 83.6923C16.6154 84.3077 17.2308 84.9231 17.8462 84.9231C17.8462 84.9231 18.4615 84.3077 18.4615 83.6923L20.3077 63.3846L18.4615 41.8462C18.4615 41.2308 17.8462 40.6154 17.2308 40.6154C17.2308 41.2308 16.6154 41.2308 16.6154 41.8462ZM24 41.2308L22.1538 63.3846L24 84.3077C24 84.9231 24.6154 85.5385 25.2308 85.5385C25.8462 85.5385 26.4615 84.9231 26.4615 84.3077L28.3077 63.3846L26.4615 41.2308C26.4615 40.6154 25.8462 40 25.2308 40C24.6154 40 24.6154 40.6154 24 41.2308ZM40 30.1538L38.1538 63.3846L40 84.9231C40 85.5385 40.6154 86.1538 41.2308 86.1538C42.4615 86.1538 43.0769 85.5385 43.0769 84.9231L44.9231 63.3846L43.0769 30.1538C43.0769 29.5385 42.4615 28.9231 41.8462 28.9231C40.6154 28.9231 40 29.5385 40 30.1538ZM48 22.7692L46.7692 63.3846L48 84.9231C48 86.1538 48.6154 86.7692 49.8462 86.7692C50.4615 86.7692 51.6923 86.1538 51.6923 84.9231L53.5385 63.3846L51.6923 22.7692C51.6923 21.5385 51.0769 20.9231 49.8462 20.9231C48.6154 20.9231 48 21.5385 48 22.7692ZM80.6154 20.9231L79.3846 63.3846L80.6154 83.6923C80.6154 84.9231 81.8462 86.1538 83.0769 86.1538C84.3077 86.1538 85.5385 84.9231 85.5385 83.6923L86.7692 63.3846L85.5385 20.3077C85.5385 19.0769 84.3077 17.8462 83.0769 17.8462C81.2308 18.4615 80.6154 19.0769 80.6154 20.9231ZM56 19.0769L54.7692 63.3846L56 84.3077C56 85.5385 56.6154 86.1538 57.8462 86.1538C59.0769 86.1538 59.6923 85.5385 59.6923 84.3077L60.9231 63.3846L59.6923 19.0769C59.6923 17.8462 59.0769 17.2308 57.8462 17.2308C56.6154 17.2308 56 18.4615 56 19.0769ZM72 19.0769L70.7692 63.3846L72 84.3077C72 85.5385 73.2308 86.7692 74.4615 86.7692C75.6923 86.7692 76.9231 85.5385 76.9231 84.3077L78.1538 63.3846L76.9231 19.0769C76.9231 17.8462 75.6923 16.6154 74.4615 16.6154C73.2308 16.6154 72 17.8462 72 19.0769ZM64 17.8462L62.7692 63.3846L64 84.3077C64 85.5385 64.6154 86.1538 65.8462 86.1538C67.0769 86.1538 67.6923 85.5385 67.6923 84.3077L68.9231 63.3846L67.6923 17.8462C67.6923 16.6154 66.4615 16 65.8462 16C65.2308 16 64 16.6154 64 17.8462ZM88.6154 12.3077L87.3846 63.3846L88.6154 83.6923C88.6154 84.9231 89.8462 86.1538 91.0769 86.1538C92.3077 86.1538 93.5385 84.9231 93.5385 83.6923L94.7692 63.3846L93.5385 12.3077C93.5385 11.0769 92.3077 9.84615 91.0769 9.84615C89.8462 9.84615 88.6154 11.0769 88.6154 12.3077ZM97.2308 8L96 63.3846L97.2308 83.6923C97.2308 84.9231 98.4615 86.1538 99.6923 86.1538C100.923 86.1538 102.154 84.9231 102.154 83.6923L103.385 63.3846L102.154 8C102.154 6.76923 100.923 5.53846 99.6923 5.53846H99.0769C97.8462 5.53846 97.2308 6.76923 97.2308 8ZM107.077 2.46154C105.231 3.07692 104.615 3.69231 104.615 5.53846V83.6923C104.615 84.9231 105.846 86.1539 107.077 86.7692H175.385C188.923 86.7692 200 75.6923 200 62.1538C200 48.6154 188.923 37.5385 175.385 37.5385C172.308 37.5385 168.615 38.1538 166.154 39.3846C164.308 17.2308 145.846 0 123.077 0C121.846 0 121.231 0 120 0C115.692 0 111.385 1.23077 107.077 2.46154Z" fill="red"/>
</svg>
