<svg width="162" height="186" viewBox="0 0 162 186" fill="none" xmlns="http://www.w3.org/2000/svg">
<path d="M77.2469 3.17977C78.5331 -0.308668 83.4669 -0.308663 84.7531 3.17978L102.349 50.9061C103.016 52.7157 104.879 53.7916 106.78 53.4645L156.91 44.8396C160.574 44.2092 163.041 48.4821 160.663 51.3401L128.129 90.4416C126.895 91.9242 126.895 94.0758 128.129 95.5584L160.663 134.66C163.041 137.518 160.574 141.791 156.91 141.16L106.78 132.535C104.879 132.208 103.016 133.284 102.349 135.094L84.7531 182.82C83.4669 186.309 78.5331 186.309 77.2469 182.82L59.6513 135.094C58.9841 133.284 57.1207 132.208 55.22 132.535L5.08993 141.16C1.4258 141.791 -1.04115 137.518 1.33687 134.66L33.8713 95.5584C35.1048 94.0758 35.1048 91.9242 33.8713 90.4416L1.33687 51.3401C-1.04115 48.4821 1.4258 44.2092 5.08993 44.8396L55.22 53.4645C57.1207 53.7916 58.9841 52.7157 59.6513 50.9061L77.2469 3.17977Z" fill="red"/>
</svg>
