<svg width="190" height="190" viewBox="0 0 190 190" fill="none" xmlns="http://www.w3.org/2000/svg">
<path d="M91.3753 2.76659C92.8117 -0.31122 97.1883 -0.311208 98.6247 2.7666L126.205 61.8622C126.602 62.7136 127.286 63.3979 128.138 63.7953L187.233 91.3753C190.311 92.8117 190.311 97.1883 187.233 98.6247L128.138 126.205C127.286 126.602 126.602 127.286 126.205 128.138L98.6247 187.233C97.1883 190.311 92.8117 190.311 91.3753 187.233L63.7953 128.138C63.3979 127.286 62.7136 126.602 61.8622 126.205L2.76659 98.6247C-0.31122 97.1883 -0.311208 92.8117 2.7666 91.3753L61.8622 63.7953C62.7136 63.3979 63.3979 62.7136 63.7953 61.8622L91.3753 2.76659Z" fill="white"/>
</svg>
