<svg width="180" height="171" viewBox="0 0 180 171" fill="none" xmlns="http://www.w3.org/2000/svg">
<path d="M86.3067 2.87972C87.6731 -0.405453 92.3269 -0.405456 93.6933 2.87971L115.512 55.3384C116.088 56.7233 117.391 57.6696 118.886 57.7895L175.519 62.3298C179.066 62.6141 180.504 67.0401 177.802 69.3548L134.653 106.316C133.514 107.292 133.016 108.823 133.364 110.282L146.547 165.547C147.373 169.008 143.608 171.743 140.571 169.889L92.085 140.274C90.805 139.492 89.195 139.492 87.915 140.274L39.4288 169.889C36.3924 171.743 32.6274 169.008 33.4529 165.547L46.6356 110.282C46.9836 108.823 46.4861 107.292 45.347 106.316L2.19817 69.3548C-0.503974 67.0401 0.934128 62.6141 4.48074 62.3298L61.1143 57.7895C62.6095 57.6696 63.9119 56.7233 64.4879 55.3384L86.3067 2.87972Z" fill="red"/>
</svg>
