<svg width="200" height="141" viewBox="0 0 200 141" fill="none" xmlns="http://www.w3.org/2000/svg">
<path fill-rule="evenodd" clip-rule="evenodd" d="M178.136 4.18176C186.746 6.48666 193.513 13.2532 195.818 21.8637C199.983 37.4547 200 70.0033 200 70.0033C200 70.0033 200 102.552 195.818 118.143C193.513 126.754 186.746 133.52 178.136 135.825C162.545 140.007 99.9996 140.007 99.9996 140.007C99.9996 140.007 37.4547 140.007 21.8636 135.825C13.2532 133.52 6.48666 126.754 4.18176 118.143C0 102.552 0 70.0033 0 70.0033C0 70.0033 0 37.4547 4.18176 21.8637C6.48666 13.2532 13.2532 6.48666 21.8636 4.18176C37.4547 0 99.9996 0 99.9996 0C99.9996 0 162.545 0 178.136 4.18176ZM131.94 70.0061L79.9808 100.002V40.0092L131.94 70.0061Z" fill="red"/>
</svg>
